HIERARCHY
ROOT hip
{
  OFFSET 0 0 0
  CHANNELS 6 Xposition Yposition Zposition Zrotation Yrotation Xrotation
  JOINT abdomen
  {
    OFFSET 0 20.6881 -0.73152
    CHANNELS 3 Zrotation Xrotation Yrotation
    JOINT chest
    {
      OFFSET 0 11.7043 -0.48768
      CHANNELS 3 Zrotation Xrotation Yrotation
      JOINT neck
      {
        OFFSET 0 22.1894 -2.19456
        CHANNELS 3 Zrotation Xrotation Yrotation
        JOINT head
        {
          OFFSET -0.24384 7.07133 1.2192
          CHANNELS 3 Zrotation Xrotation Yrotation
          JOINT leftEye
          {
            OFFSET 4.14528 8.04674 8.04672
            CHANNELS 3 Zrotation Xrotation Yrotation
            End Site
            {
              OFFSET 1 0 0
            }
          }
          JOINT rightEye
          {
            OFFSET -3.6576 8.04674 8.04672
            CHANNELS 3 Zrotation Xrotation Yrotation
            End Site
            {
              OFFSET 1 0 0
            }
          }
        }
      }
      JOINT rCollar
      {
        OFFSET -2.68224 19.2634 -4.8768
        CHANNELS 3 Zrotation Xrotation Yrotation
        JOINT rShldr
        {
          OFFSET -8.77824 -1.95073 1.46304
          CHANNELS 3 Zrotation Xrotation Yrotation
          JOINT rForeArm
          {
            OFFSET -28.1742 -1.7115 0.48768
            CHANNELS 3 Zrotation Xrotation Yrotation
            JOINT rHand
            {
              OFFSET -22.5879 0.773209 7.07136
              CHANNELS 3 Zrotation Xrotation Yrotation
              JOINT rThumb1
              {
                OFFSET -1.2192 -0.487915 3.41376
                CHANNELS 3 Zrotation Xrotation Yrotation
                JOINT rThumb2
                {
                  OFFSET -3.37035 -0.52449 3.41376
                  CHANNELS 3 Zrotation Xrotation Yrotation
                  End Site
                  {
                    OFFSET -1.78271 -1.18214 1.43049
                  }
                }
              }
              JOINT rIndex1
              {
                OFFSET -7.75947 0.938293 5.60832
                CHANNELS 3 Zrotation Xrotation Yrotation
                JOINT rIndex2
                {
                  OFFSET -2.54057 -0.884171 1.56538
                  CHANNELS 3 Zrotation Xrotation Yrotation
                  End Site
                  {
                    OFFSET -1.62519 -0.234802 1.16502
                  }
                }
              }
              JOINT rMid1
              {
                OFFSET -8.24714 1.18213 3.41376
                CHANNELS 3 Zrotation Xrotation Yrotation
                JOINT rMid2
                {
                  OFFSET -3.10165 -0.590103 1.0647
                  CHANNELS 3 Zrotation Xrotation Yrotation
                  End Site
                  {
                    OFFSET -2.48547 -0.328903 0.83742
                  }
                }
              }
              JOINT rRing1
              {
                OFFSET -8.82822 0.546677 1.51678
                CHANNELS 3 Zrotation Xrotation Yrotation
                JOINT rRing2
                {
                  OFFSET -2.60934 -0.819778 -0.0198488
                  CHANNELS 3 Zrotation Xrotation Yrotation
                  End Site
                  {
                    OFFSET -2.33842 -0.294052 0.168128
                  }
                }
              }
              JOINT rPinky1
              {
                OFFSET -8.27202 -0.0477905 -0.4584
                CHANNELS 3 Zrotation Xrotation Yrotation
                JOINT rPinky2
                {
                  OFFSET -1.82734 -0.647385 -0.700984
                  CHANNELS 3 Zrotation Xrotation Yrotation
                  End Site
                  {
                    OFFSET -1.69225 -0.51767 -0.607171
                  }
                }
              }
            }
          }
        }
      }
      JOINT lCollar
      {
        OFFSET 2.68224 19.2634 -4.8768
        CHANNELS 3 Zrotation Xrotation Yrotation
        JOINT lShldr
        {
          OFFSET 8.77824 -1.95073 1.46304
          CHANNELS 3 Zrotation Xrotation Yrotation
          JOINT lForeArm
          {
            OFFSET 28.1742 -1.7115 0.48768
            CHANNELS 3 Zrotation Xrotation Yrotation
            JOINT lHand
            {
              OFFSET 22.5879 0.773209 7.07136
              CHANNELS 3 Zrotation Xrotation Yrotation
              JOINT lThumb1
              {
                OFFSET 1.2192 -0.487915 3.41376
                CHANNELS 3 Zrotation Xrotation Yrotation
                JOINT lThumb2
                {
                  OFFSET 3.37035 -0.52449 3.41376
                  CHANNELS 3 Zrotation Xrotation Yrotation
                  End Site
                  {
                    OFFSET 1.78271 -1.18214 1.43049
                  }
                }
              }
              JOINT lIndex1
              {
                OFFSET 7.75947 0.938293 5.60832
                CHANNELS 3 Zrotation Xrotation Yrotation
                JOINT lIndex2
                {
                  OFFSET 2.54057 -0.884171 1.56538
                  CHANNELS 3 Zrotation Xrotation Yrotation
                  End Site
                  {
                    OFFSET 1.62519 -0.234802 1.16502
                  }
                }
              }
              JOINT lMid1
              {
                OFFSET 8.24714 1.18213 3.41376
                CHANNELS 3 Zrotation Xrotation Yrotation
                JOINT lMid2
                {
                  OFFSET 3.10165 -0.590103 1.0647
                  CHANNELS 3 Zrotation Xrotation Yrotation
                  End Site
                  {
                    OFFSET 2.48547 -0.328903 0.83742
                  }
                }
              }
              JOINT lRing1
              {
                OFFSET 8.82822 0.546677 1.51678
                CHANNELS 3 Zrotation Xrotation Yrotation
                JOINT lRing2
                {
                  OFFSET 2.60934 -0.819778 -0.0198488
                  CHANNELS 3 Zrotation Xrotation Yrotation
                  End Site
                  {
                    OFFSET 2.33842 -0.294052 0.168128
                  }
                }
              }
              JOINT lPinky1
              {
                OFFSET 8.27202 -0.0477905 -0.4584
                CHANNELS 3 Zrotation Xrotation Yrotation
                JOINT lPinky2
                {
                  OFFSET 1.82734 -0.647385 -0.700984
                  CHANNELS 3 Zrotation Xrotation Yrotation
                  End Site
                  {
                    OFFSET 1.69225 -0.51767 -0.607171
                  }
                }
              }
            }
          }
        }
      }
    }
  }
  JOINT rButtock
  {
    OFFSET -8.77824 4.35084 1.2192
    CHANNELS 3 Zrotation Xrotation Yrotation
    JOINT rThigh
    {
      OFFSET 0 -1.70687 -2.19456
      CHANNELS 3 Zrotation Xrotation Yrotation
      JOINT rShin
      {
        OFFSET 0 -36.8199 0.73152
        CHANNELS 3 Zrotation Xrotation Yrotation
        JOINT rFoot
        {
          OFFSET 0.73152 -45.1104 -5.12064
          CHANNELS 3 Zrotation Xrotation Yrotation
          End Site
          {
            OFFSET -1.1221 -3.69964 12.103
          }
        }
      }
    }
  }
  JOINT lButtock
  {
    OFFSET 8.77824 4.35084 1.2192
    CHANNELS 3 Zrotation Xrotation Yrotation
    JOINT lThigh
    {
      OFFSET 0 -1.70687 -2.19456
      CHANNELS 3 Zrotation Xrotation Yrotation
      JOINT lShin
      {
        OFFSET 0 -36.8199 0.73152
        CHANNELS 3 Zrotation Xrotation Yrotation
        JOINT lFoot
        {
          OFFSET -0.73152 -45.1104 -5.12064
          CHANNELS 3 Zrotation Xrotation Yrotation
          End Site
          {
            OFFSET 1.1221 -3.69964 12.103
          }
        }
      }
    }
  }
}
MOTION
Frames:	4
Frame Time:	0.00833333
-173.167 85.4571 15.2618 0.0 0.0 0.0 1.92989 -0.00172228 0.0523846 0.5321 0.00507005 0.0921257 -2.575e-14 0.0 -4.96962e-16 -7.74484e-14 3.18055e-15 -1.39149e-15 -0.0 0.0 0.0 -0.0 0.0 0.0 -1.30223e-14 -2.50422e-17 -9.93923e-17 -2.70843e-13 -6.1499e-16 -4.57205e-15 -4.70424e-12 1.3905e-12 -4.77083e-14 -5.37533e-11 -1.49084e-12 -1.06549e-12 -1.26814e-10 -2.1675e-13 -2.37269e-12 -2.19019e-10 -3.72125e-13 -4.10848e-12 -1.26808e-10 -2.15483e-13 -2.3886e-12 7.73091 5.47488 0.417314 -1.26815e-10 -2.17073e-13 -2.37587e-12 2.90554 0.965183 0.102902 -1.26804e-10 -2.16477e-13 -2.38065e-12 10.2786 0.731801 0.0259123 -1.26825e-10 -2.14687e-13 -2.36951e-12 2.22167 -0.733487 -0.20892 -1.30193e-14 -2.73717e-17 -3.47873e-16 -2.7518e-13 -4.96962e-16 -6.95746e-15 -4.68819e-12 -1.42628e-12 -5.08889e-14 -5.37659e-11 1.33014e-12 -1.05276e-12 -1.26805e-10 -2.07794e-13 -2.39496e-12 -2.18982e-10 -3.56222e-13 -4.11484e-12 -1.26811e-10 -2.08326e-13 -2.38542e-12 -7.73091 5.47488 -0.417314 -1.26805e-10 -2.07929e-13 -2.3886e-12 -2.90554 0.965183 -0.102902 -1.2681e-10 -2.07829e-13 -2.38383e-12 -10.2786 0.731801 -0.0259123 -1.26796e-10 -2.0276e-13 -2.38542e-12 -2.22167 -0.733487 0.20892 -2.03217e-16 0.0 -3.88251e-19 1.95945 -7.26117 -0.192015 0.00412064 7.5853 0.107063 -0.521268 -0.330675 0.0523259 2.03217e-16 0.0 3.88251e-19 0.978789 -1.92613 0.000834638 0.00897237 -2.0786 0.0739321 0.485754 3.9981 -0.136424
-166.269 85.6064 6.29258 59.5539 87.384 58.4519 0.542459 1.73388 0.869719 1.22939 -0.779529 0.35847 0.944593 -2.01248 0.56548 -0.517782 0.00923551 0.766915 -0.0 0.0 0.0 -0.0 0.0 0.0 -4.84613e-15 3.30765e-13 -1.7747e-15 21.8474 9.95653 -0.331458 -4.68099 -2.22748 7.19891 0.00046606 0.483024 0.0678762 8.16652e-10 6.98589e-13 -1.11769e-09 1.40702e-09 1.46703e-12 -1.93557e-09 8.16659e-10 6.98368e-13 -1.11771e-09 7.73091 5.47488 0.417314 8.16648e-10 6.95306e-13 -1.11769e-09 2.90554 0.965183 0.102902 8.16662e-10 6.96905e-13 -1.1177e-09 10.2786 0.731801 0.0259123 8.16642e-10 6.98762e-13 -1.11769e-09 2.22167 -0.733487 -0.20892 -4.87445e-15 3.30765e-13 -2.06627e-15 -21.7554 11.6218 -1.66796 4.04104 -1.80173 -6.3488 -0.00808048 2.04253 -0.286464 -1.26273e-09 4.37936e-10 9.97182e-10 -2.17377e-09 7.56571e-10 1.73214e-09 -1.26274e-09 4.37935e-10 9.97193e-10 -7.73091 5.47488 -0.417314 -1.26273e-09 4.37936e-10 9.97189e-10 -2.90554 0.965183 -0.102902 -1.26274e-09 4.37935e-10 9.97192e-10 -10.2786 0.731801 -0.0259123 -1.26273e-09 4.3794e-10 9.97191e-10 -2.22167 -0.733487 0.20892 -2.03217e-16 0.0 -3.88251e-19 -1.01794 -4.73709 -1.03927 0.000515259 8.235 0.112089 -0.354761 -3.98497 1.24961 2.03217e-16 0.0 3.88251e-19 2.40894 1.43306 0.0638078 0.00162677 -1.85193 0.0285863 0.807024 0.223499 4.23605
-166.272 85.6049 6.2939 59.3796 87.3761 58.2934 -0.982842 3.56498 1.73794 1.9743 -1.60897 0.640639 1.98791 -4.13863 1.16499 -1.0661 0.0180143 1.57588 -0.0 0.0 0.0 -0.0 0.0 0.0 3.4538e-15 6.65263e-13 -3.3576e-15 45.0767 20.4789 -0.715035 -9.02988 -4.46801 14.8499 -0.000287348 0.986359 0.138623 1.82812e-09 9.12623e-13 -2.31225e-09 3.15027e-09 2.11825e-12 -4.00425e-09 1.82813e-09 9.10732e-13 -2.31226e-09 7.73091 5.47488 0.417314 1.82812e-09 9.06029e-13 -2.31224e-09 2.90554 0.965183 0.102902 1.82813e-09 9.08737e-13 -2.31225e-09 10.2786 0.731801 0.0259123 1.82812e-09 9.10657e-13 -2.31224e-09 2.22167 -0.733487 -0.20892 3.39207e-15 6.65264e-13 -3.69615e-15 -43.9485 23.877 -3.684 7.89384 -3.64089 -13.0997 0.00579094 4.15051 -0.583376 -2.46915e-09 9.01186e-10 2.07686e-09 -4.24978e-09 1.55685e-09 3.60724e-09 -2.46916e-09 9.01185e-10 2.07687e-09 -7.73091 5.47488 -0.417314 -2.46916e-09 9.01185e-10 2.07687e-09 -2.90554 0.965183 -0.102902 -2.46916e-09 9.01184e-10 2.07687e-09 -10.2786 0.731801 -0.0259123 -2.46915e-09 9.01188e-10 2.07687e-09 -2.22167 -0.733487 0.20892 -2.03217e-16 0.0 -3.88251e-19 -4.08669 -2.07049 -1.92592 -0.00346772 8.92101 0.117439 -0.0123265 -7.84234 2.52737 2.03217e-16 0.0 3.88251e-19 3.90788 4.98147 0.128904 -0.00579924 -1.61035 -0.0194488 1.77224 -3.72064 8.87928
-166.272 85.6065 6.28671 59.0205 87.2778 57.9426 -2.38143 5.2007 2.51355 2.64588 -2.34849 0.89181 2.9535 -6.03507 1.70485 -1.55409 0.0276867 2.30075 -0.0 0.0 0.0 -0.0 0.0 0.0 1.15062e-14 9.92346e-13 -5.12531e-15 65.9328 29.8653 -1.1294 -12.3996 -6.26138 21.7164 -0.00203608 1.44907 0.203687 2.70358e-09 2.52927e-12 -3.34833e-09 4.65909e-09 5.14534e-12 -5.7985e-09 2.70359e-09 2.52607e-12 -3.34834e-09 7.73091 5.47488 0.417314 2.70357e-09 2.52006e-12 -3.34832e-09 2.90554 0.965183 0.102902 2.70359e-09 2.52367e-12 -3.34833e-09 10.2786 0.731801 0.0259123 2.70358e-09 2.52566e-12 -3.34833e-09 2.22167 -0.733487 -0.20892 1.14153e-14 9.9235e-13 -5.50307e-15 -62.866 34.7337 -5.96752 10.9457 -5.14025 -19.1168 0.0373284 6.12697 -0.86378 -3.53459e-09 1.31422e-09 2.99634e-09 -6.08336e-09 2.27042e-09 5.20465e-09 -3.53459e-09 1.31422e-09 2.99635e-09 -7.73091 5.47488 -0.417314 -3.53459e-09 1.31422e-09 2.99635e-09 -2.90554 0.965183 -0.102902 -3.5346e-09 1.31422e-09 2.99634e-09 -10.2786 0.731801 -0.0259123 -3.53459e-09 1.31422e-09 2.99634e-09 -2.22167 -0.733487 0.20892 -2.03217e-16 0.0 -3.88251e-19 -6.74906 0.308452 -2.72624 -0.00704299 9.5344 0.122236 0.443894 -11.2734 3.70673 2.03217e-16 0.0 3.88251e-19 5.2469 8.15139 0.191631 -0.0119878 -1.39858 -0.0620712 3.17186 -7.13575 13.0833
